<?xml version="1.0" encoding="utf-8" ?>
<svg baseProfile="tiny" height="100%" version="1.2" width="100%" xmlns="http://www.w3.org/2000/svg" xmlns:ev="http://www.w3.org/2001/xml-events" xmlns:xlink="http://www.w3.org/1999/xlink"><defs /><polygon fill="black" points="138,916 138,918 139,919 139,921 140,922 140,925 141,926 141,928 142,929 142,932 143,933 143,935 143,926 143,928 142,929 141,928 141,926 140,925 140,922 139,921 139,919 138,918" /><polygon fill="black" points="142,912 142,922" /><polygon fill="black" points="137,909 137,914" /><polygon fill="black" points="141,899 141,908" /><polygon fill="black" points="136,899 136,906" /><polygon fill="black" points="135,889 135,895" /><polygon fill="black" points="134,881 134,886" /><polygon fill="black" points="140,877 140,892" /><polygon fill="black" points="133,872 133,877" /><polygon fill="black" points="139,863 139,871" /><polygon fill="black" points="132,859 132,869" /><polygon fill="black" points="138,805 138,859" /><polygon fill="black" points="131,799 131,849" /><polygon fill="black" points="130,788 130,797" /><polygon fill="black" points="139,782 139,797" /><polygon fill="black" points="131,775 131,785" /><polygon fill="black" points="140,765 140,775" /><polygon fill="black" points="132,763 132,770" /><polygon fill="black" points="141,752 141,757" /><polygon fill="black" points="133,752 133,757" /><polygon fill="black" points="142,743 142,748" /><polygon fill="black" points="134,743 134,748" /><polygon fill="black" points="135,734 135,739" /><polygon fill="black" points="143,733 143,738" /><polygon fill="black" points="136,725 136,730" /><polygon fill="black" points="144,722 144,728" /><polygon fill="black" points="137,716 137,721" /><polygon fill="black" points="145,710 145,716" /><polygon fill="black" points="138,706 138,711" /><polygon fill="black" points="146,702 146,705" /><polygon fill="black" points="139,697 139,702" /><polygon fill="black" points="147,695 147,698" /><polygon fill="black" points="140,690 140,692" /><polygon fill="black" points="148,689 148,692" /><polygon fill="black" points="141,684 141,687" /><polygon fill="black" points="149,683 149,686" /><polygon fill="black" points="142,678 142,681" /><polygon fill="black" points="150,677 150,679" /><polygon fill="black" points="143,673 143,675" /><polygon fill="black" points="151,671 151,673" /><polygon fill="black" points="144,667 144,669" /><polygon fill="black" points="152,664 152,667" /><polygon fill="black" points="145,660 145,664" /><polygon fill="black" points="153,658 153,661" /><polygon fill="black" points="154,652 154,655" /><polygon fill="black" points="146,649 146,655" /><polygon fill="black" points="155,647 155,649" /><polygon fill="black" points="156,642 156,644" /><polygon fill="black" points="147,639 147,644" /><polygon fill="black" points="157,637 157,639" /><polygon fill="black" points="158,633 158,634" /><polygon fill="black" points="148,633 148,635" /><polygon fill="black" points="159,628 159,630" /><polygon fill="black" points="149,627 149,630" /><polygon fill="black" points="160,622 160,625" /><polygon fill="black" points="150,622 150,624" /><polygon fill="black" points="151,617 151,619" /><polygon fill="black" points="161,615 161,619" /><polygon fill="black" points="152,612 152,614" /><polygon fill="black" points="162,609 162,612" /><polygon fill="black" points="153,605 153,608" /><polygon fill="black" points="163,602 163,605" /><polygon fill="black" points="154,598 154,601" /><polygon fill="black" points="164,595 164,598" /><polygon fill="black" points="165,590 165,592" /><polygon fill="black" points="155,590 155,594" /><polygon fill="black" points="166,585 166,587" /><polygon fill="black" points="156,583 156,586" /><polygon fill="black" points="167,580 167,582" /><polygon fill="black" points="157,576 157,579" /><polygon fill="black" points="168,575 168,577" /><polygon fill="black" points="169,570 169,572" /><polygon fill="black" points="158,569 158,572" /><polygon fill="black" points="170,565 170,567" /><polygon fill="black" points="159,561 159,565" /><polygon fill="black" points="171,559 171,562" /><polygon fill="black" points="160,554 160,558" /><polygon fill="black" points="172,553 172,557" /><polygon fill="black" points="161,547 161,551" /><polygon fill="black" points="173,546 173,550" /><polygon fill="black" points="162,541 162,544" /><polygon fill="black" points="174,539 174,543" /><polygon fill="black" points="163,534 163,538" /><polygon fill="black" points="175,532 175,536" /><polygon fill="black" points="164,528 164,531" /><polygon fill="black" points="176,527 176,529" /><polygon fill="black" points="177,522 177,524" /><polygon fill="black" points="165,521 165,525" /><polygon fill="black" points="178,517 178,519" /><polygon fill="black" points="166,515 166,519" /><polygon fill="black" points="179,512 179,515" /><polygon fill="black" points="167,508 167,512" /><polygon fill="black" points="180,507 180,510" /><polygon fill="black" points="181,503 181,505" /><polygon fill="black" points="168,500 168,505" /><polygon fill="black" points="182,499 182,500" /><polygon fill="black" points="183,494 183,496" /><polygon fill="black" points="169,493 169,497" /><polygon fill="black" points="184,490 184,492" /><polygon fill="black" points="170,485 170,489" /><polygon fill="black" points="186,481 186,484 185,485 185,488 185,485 186,484" /><polygon fill="black" points="187,477 187,479" /><polygon fill="black" points="171,477 171,482" /><polygon fill="black" points="188,472 188,475" /><polygon fill="black" points="189,466 189,470" /><polygon fill="black" points="172,463 172,473" /><polygon fill="black" points="190,460 190,463" /><polygon fill="black" points="191,454 191,457" /><polygon fill="black" points="173,449 173,458" /><polygon fill="black" points="192,448 192,451" /><polygon fill="black" points="193,443 193,446" /><polygon fill="black" points="194,439 194,441" /><polygon fill="black" points="195,434 195,437" /><polygon fill="black" points="196,430 196,432" /><polygon fill="black" points="197,425 197,427" /><polygon fill="black" points="198,421 198,423" /><polygon fill="black" points="199,417 199,419" /><polygon fill="black" points="200,413 200,415" /><polygon fill="black" points="173,409 173,414" /><polygon fill="black" points="201,408 201,410" /><polygon fill="black" points="202,404 202,406" /><polygon fill="black" points="203,400 203,402" /><polygon fill="black" points="204,396 204,398" /><polygon fill="black" points="174,395 174,404" /><polygon fill="black" points="205,393 205,394" /><polygon fill="black" points="206,389 206,390" /><polygon fill="black" points="207,385 207,387" /><polygon fill="black" points="208,381 208,383" /><polygon fill="black" points="175,381 175,390" /><polygon fill="black" points="209,378 209,379" /><polygon fill="black" points="210,374 210,376" /><polygon fill="black" points="211,370 211,372" /><polygon fill="black" points="212,367 212,368" /><polygon fill="black" points="213,363 213,365" /><polygon fill="black" points="214,359 214,361" /><polygon fill="black" points="176,359 176,375" /><polygon fill="black" points="215,356 215,357" /><polygon fill="black" points="177,350 177,353" /><polygon fill="black" points="217,349 217,351 216,352 216,354 216,352 217,351" /><polygon fill="black" points="218,346 218,347" /><polygon fill="black" points="178,345 178,348" /><polygon fill="black" points="219,342 219,344" /><polygon fill="black" points="179,340 179,342" /><polygon fill="black" points="220,339" /><polygon fill="black" points="180,334 180,337" /><polygon fill="black" points="181,329 181,332" /><polygon fill="black" points="225,327 224,328 224,329 223,330 223,331 222,332 222,334 221,335 221,337 221,335 222,334 222,332 223,331 223,330 224,329 224,328" /><polygon fill="black" points="226,325" /><polygon fill="black" points="182,324 182,327" /><polygon fill="black" points="227,323" /><polygon fill="black" points="183,319 183,321" /><polygon fill="black" points="184,312 184,316" /><polygon fill="black" points="185,305 185,309" /><polygon fill="black" points="186,297 186,300" /><polygon fill="black" points="187,289 187,292" /><polygon fill="black" points="188,282 188,285" /><polygon fill="black" points="189,275 189,277" /><polygon fill="black" points="190,268 190,271" /><polygon fill="black" points="191,262 191,264" /><polygon fill="black" points="192,255 192,258" /><polygon fill="black" points="193,249 193,251" /><polygon fill="black" points="194,238 194,243" /><polygon fill="black" points="195,224 195,230" /><polygon fill="black" points="196,211 196,216" /><polygon fill="black" points="197,201 197,204" /><polygon fill="black" points="198,192 198,195" /><polygon fill="black" points="199,184 199,186" /><polygon fill="black" points="200,174 200,177" /><polygon fill="black" points="201,162 201,166" /><polygon fill="black" points="202,150 202,154" /><polygon fill="black" points="203,139 203,144" /><polygon fill="black" points="329,132" /><polygon fill="black" points="204,129 204,132" /><polygon fill="black" points="202,125" /><polygon fill="black" points="200,124" /><polygon fill="black" points="197,123" /><polygon fill="black" points="194,122 195,122" /><polygon fill="black" points="340,121 338,123" /><polygon fill="black" points="192,121" /><polygon fill="black" points="342,120" /><polygon fill="black" points="189,120" /><polygon fill="black" points="344,119" /><polygon fill="black" points="186,119 187,119" /><polygon fill="black" points="184,118" /><polygon fill="black" points="347,117" /><polygon fill="black" points="181,117" /><polygon fill="black" points="349,116" /><polygon fill="black" points="178,116 179,116" /><polygon fill="black" points="351,115" /><polygon fill="black" points="176,115" /><polygon fill="black" points="174,114" /><polygon fill="black" points="172,113" /><polygon fill="black" points="355,112 354,113" /><polygon fill="black" points="170,112" /><polygon fill="black" points="167,111 168,111" /><polygon fill="black" points="165,110" /><polygon fill="black" points="163,109" /><polygon fill="black" points="360,108 358,110" /><polygon fill="black" points="161,108" /><polygon fill="black" points="362,107" /><polygon fill="black" points="159,107" /><polygon fill="black" points="364,106" /><polygon fill="black" points="157,106" /><polygon fill="black" points="154,105 155,105" /><polygon fill="black" points="152,104" /><polygon fill="black" points="150,103" /><polygon fill="black" points="148,102" /><polygon fill="black" points="145,100 146,101" /><polygon fill="black" points="377,99 376,100 375,100 374,101 373,101 372,102 371,102 370,103 369,103 368,104 367,104 366,105 367,104 368,104 369,103 370,103 371,102 372,102 373,101 374,101 375,100 376,100" /><polygon fill="black" points="142,98 143,99" /><polygon fill="black" points="381,97" /><polygon fill="black" points="377,91 381,91" /><polygon fill="black" points="132,91 134,93 135,93 137,95 138,95 140,97 138,95 137,95 135,93 134,93" /><polygon fill="black" points="368,90 374,90" /><polygon fill="black" points="129,89 130,90" /><polygon fill="black" points="126,87 127,88" /><polygon fill="black" points="123,85 124,86" /><polygon fill="black" points="120,83 121,84" /><polygon fill="black" points="113,79 114,80 115,80 116,81 117,81 118,82 117,81 116,81 115,80 114,80" /><polygon fill="black" points="111,78" /><polygon fill="black" points="109,77" /><polygon fill="black" points="107,76" /><polygon fill="black" points="98,71 99,72 100,72 101,73 102,73 103,74 104,74 105,75 104,74 103,74 102,73 101,73 100,72 99,72" /><polygon fill="black" points="96,70" /><polygon fill="black" points="94,69" /><polygon fill="black" points="86,64 87,65 88,65 90,67 91,67 92,68 91,67 90,67 88,65 87,65" /><polygon fill="black" points="83,62 84,63" /><polygon fill="black" points="80,60 81,61" /><polygon fill="black" points="77,58 78,59" /><polygon fill="black" points="74,56 75,57" /><polygon fill="black" points="71,54 72,55" /><polygon fill="black" points="68,52 69,53" /><polygon fill="black" points="65,50 66,51" /><polygon fill="black" points="50,40 51,41 52,41 54,43 55,43 57,45 58,45 60,47 61,47 63,49 61,47 60,47 58,45 57,45 55,43 54,43 52,41 51,41" /><polygon fill="black" points="48,39" /><polygon fill="black" points="83,34 84,34" /><polygon fill="black" points="74,33 77,33" /><polygon fill="black" points="67,32 70,32" /><polygon fill="black" points="63,31 65,31" /><polygon fill="black" points="58,30 60,30" /><polygon fill="black" points="53,29 56,29" /></svg>